<svg width="25" height="24" viewBox="0 0 25 24" fill="none" xmlns="http://www.w3.org/2000/svg">
<path d="M12.8562 22C10.584 22 8.68975 21.2194 7.17343 19.6582C5.65709 18.097 4.89893 16.1538 4.89893 13.8286C4.89893 12.1823 5.55777 10.3779 6.87546 8.41531C8.19316 6.45271 10.1874 4.31428 12.8581 2C15.5289 4.31428 17.5231 6.45271 18.8408 8.41531C20.1585 10.3779 20.8173 12.1823 20.8173 13.8286C20.8173 16.1538 20.0585 18.097 18.5409 19.6582C17.0234 21.2194 15.1284 22 12.8562 22ZM12.8581 20.4082C14.6976 20.4082 16.2187 19.7847 17.4214 18.5378C18.6241 17.2908 19.2255 15.7211 19.2255 13.8286C19.2255 12.5374 18.6905 11.0782 17.6204 9.45099C16.5503 7.82378 14.9629 6.04622 12.8581 4.11832C10.7533 6.04622 9.16592 7.82378 8.09585 9.45099C7.02578 11.0782 6.49074 12.5374 6.49074 13.8286C6.49074 15.7211 7.09211 17.2908 8.29483 18.5378C9.49756 19.7847 11.0187 20.4082 12.8581 20.4082Z" fill="#333333"/>
</svg>
