<svg xmlns="http://www.w3.org/2000/svg" width="87.74" height="18.33" viewBox="0 0 87.74 18.33">
  <title>shop-map</title>
  <g id="圖層_2" data-name="圖層 2">
    <g id="design">
      <g>
        <path d="M5.8,12.27A2.55,2.55,0,0,1,4.68,13a4.51,4.51,0,0,1-1.6.27,3.2,3.2,0,0,1-1.62-.41A2.7,2.7,0,0,1,.39,11.69,4.19,4.19,0,0,1,0,9.89V9.41A4.39,4.39,0,0,1,.36,7.56a2.73,2.73,0,0,1,1-1.19A3,3,0,0,1,3,6a3,3,0,0,1,2,.6A2.63,2.63,0,0,1,5.8,8.32H4.38a1.37,1.37,0,0,0-.44-.89A1.37,1.37,0,0,0,3,7.14a1.32,1.32,0,0,0-1.14.56,2.94,2.94,0,0,0-.39,1.67v.46a2.85,2.85,0,0,0,.42,1.69,1.47,1.47,0,0,0,1.25.57,1.66,1.66,0,0,0,1.18-.35V10.51H3V9.43H5.8Z" fill="#231815"/>
        <path d="M14,9.77a4.38,4.38,0,0,1-.37,1.84,2.86,2.86,0,0,1-1.07,1.23,3.12,3.12,0,0,1-3.16,0,2.81,2.81,0,0,1-1.07-1.21,4.2,4.2,0,0,1-.39-1.82V9.46A4.34,4.34,0,0,1,8.3,7.61,2.78,2.78,0,0,1,9.37,6.39,2.9,2.9,0,0,1,11,6a2.9,2.9,0,0,1,1.58.43A2.78,2.78,0,0,1,13.6,7.61,4.34,4.34,0,0,1,14,9.46Zm-1.49-.32a3,3,0,0,0-.4-1.7A1.3,1.3,0,0,0,11,7.17a1.3,1.3,0,0,0-1.14.58,3,3,0,0,0-.4,1.68v.34a3,3,0,0,0,.4,1.69,1.29,1.29,0,0,0,1.15.6,1.29,1.29,0,0,0,1.13-.57,3,3,0,0,0,.4-1.69Z" fill="#231815"/>
        <path d="M22,9.77a4.23,4.23,0,0,1-.37,1.84,2.84,2.84,0,0,1-1.06,1.23,3,3,0,0,1-1.59.43,3,3,0,0,1-1.57-.43,2.83,2.83,0,0,1-1.08-1.21A4.2,4.2,0,0,1,16,9.81V9.46a4.19,4.19,0,0,1,.38-1.85,2.76,2.76,0,0,1,1.06-1.22,3.12,3.12,0,0,1,3.16,0,2.78,2.78,0,0,1,1.07,1.22A4.19,4.19,0,0,1,22,9.46Zm-1.48-.32a3.07,3.07,0,0,0-.4-1.7A1.33,1.33,0,0,0,19,7.17a1.27,1.27,0,0,0-1.13.58,2.89,2.89,0,0,0-.41,1.68v.34a3,3,0,0,0,.4,1.69,1.3,1.3,0,0,0,1.15.6,1.32,1.32,0,0,0,1.14-.57,3.12,3.12,0,0,0,.4-1.69Z" fill="#231815"/>
        <path d="M29.87,12.27a2.55,2.55,0,0,1-1.12.73,4.51,4.51,0,0,1-1.6.27,3.2,3.2,0,0,1-1.62-.41,2.7,2.7,0,0,1-1.07-1.17,4.19,4.19,0,0,1-.39-1.8V9.41a4.39,4.39,0,0,1,.36-1.85,2.73,2.73,0,0,1,1-1.19A3.06,3.06,0,0,1,27.05,6a3,3,0,0,1,2,.6,2.63,2.63,0,0,1,.84,1.76H28.45a1.25,1.25,0,0,0-1.36-1.18A1.29,1.29,0,0,0,26,7.7a2.86,2.86,0,0,0-.4,1.67v.46A2.85,2.85,0,0,0,26,11.52a1.47,1.47,0,0,0,1.25.57,1.66,1.66,0,0,0,1.18-.35V10.51H27.07V9.43h2.8Z" fill="#231815"/>
        <path d="M33.67,12h3.11v1.18H32.21V6.06h1.46Z" fill="#231815"/>
        <path d="M43.05,10.09H40.24V12h3.3v1.18H38.77V6.06h4.76V7.24H40.24v1.7h2.81Z" fill="#231815"/>
        <path d="M51.1,6.06l1.83,5.15,1.81-5.15h1.93v7.11H55.2V11.22l.14-3.35-1.91,5.3h-1l-1.91-5.3.14,3.35v1.95H49.19V6.06Z" fill="#231815"/>
        <path d="M63.2,11.7H60.63l-.49,1.47H58.58l2.65-7.11h1.36l2.66,7.11H63.69ZM61,10.52H62.8l-.89-2.67Z" fill="#231815"/>
        <path d="M68.53,10.66v2.51H67.06V6.06h2.78a3.32,3.32,0,0,1,1.41.29,2.21,2.21,0,0,1,.93.83,2.31,2.31,0,0,1,.33,1.23,2,2,0,0,1-.72,1.65,3,3,0,0,1-2,.6Zm0-1.18h1.31a1.29,1.29,0,0,0,.88-.28A1,1,0,0,0,71,8.42a1.11,1.11,0,0,0-1.16-1.18H68.53Z" fill="#231815"/>
      </g>
      <polygon points="83.99 18.33 83.3 18.05 86.93 9.17 83.3 0.28 83.99 0 87.74 9.17 83.99 18.33" fill="#3e3a39"/>
    </g>
  </g>
</svg>